<svg width="44" height="35" viewBox="0 0 44 35" fill="none" xmlns="http://www.w3.org/2000/svg">
<g clip-path="url(#clip0_431_954)">
<path d="M29.2669 17.5001C28.105 17.5001 27.0119 16.8849 26.4206 15.9005L22 8.61337L17.5862 15.9005C16.9881 16.8917 15.895 17.5069 14.7331 17.5069C14.4237 17.5069 14.1144 17.4659 13.8187 17.377L4.39998 14.6974V26.8653C4.39998 27.8702 5.08748 28.7452 6.06373 28.9845L20.9275 32.6827C21.6287 32.8536 22.3644 32.8536 23.0587 32.6827L37.9362 28.9845C38.9125 28.7384 39.6 27.8634 39.6 26.8653V14.6974L30.1812 17.3702C29.8856 17.4591 29.5762 17.5001 29.2669 17.5001ZM43.8831 9.83016L40.3425 2.80282C40.1294 2.37899 39.6687 2.1329 39.1944 2.19442L22 4.37509L28.3044 14.7725C28.5656 15.2032 29.0881 15.4083 29.5762 15.2716L43.1819 11.4093C43.8625 11.211 44.1925 10.4591 43.8831 9.83016ZM3.65748 2.80282L0.116855 9.83016C-0.199395 10.4591 0.13748 11.211 0.81123 11.4024L14.4169 15.2647C14.905 15.4015 15.4275 15.1964 15.6887 14.7657L22 4.37509L4.79873 2.19442C4.32436 2.13973 3.87061 2.37899 3.65748 2.80282Z" fill="#0076CB"/>
</g>
<defs>
<clipPath id="clip0_431_954">
<rect width="44" height="35" fill="white"/>
</clipPath>
</defs>
</svg>
