<svg width="35" height="30" viewBox="0 0 35 30" fill="none" xmlns="http://www.w3.org/2000/svg">
<path d="M20.1688 23.75C19.9509 23.7506 19.7356 23.7094 19.5388 23.6294C19.3419 23.5493 19.1685 23.4325 19.0313 23.2875L11.9875 15.7875C11.773 15.5638 11.6558 15.2833 11.6558 14.9937C11.6558 14.7042 11.773 14.4236 11.9875 14.2L19.2792 6.69998C19.5267 6.44471 19.8824 6.28418 20.268 6.2537C20.6537 6.22323 21.0376 6.32531 21.3354 6.53748C21.6332 6.74965 21.8205 7.05454 21.8561 7.38507C21.8916 7.71561 21.7725 8.04471 21.525 8.29998L15.0063 15L21.3063 21.7C21.4846 21.8835 21.5979 22.1069 21.6327 22.3438C21.6675 22.5808 21.6224 22.8213 21.5028 23.0369C21.3831 23.2526 21.1939 23.4344 20.9575 23.5607C20.721 23.6871 20.4474 23.7528 20.1688 23.75Z" fill="#0076CB"/>
</svg>