<svg width="48" height="48" viewBox="0 0 48 48" fill="none" xmlns="http://www.w3.org/2000/svg">
<path d="M18.8741 46.9461C18.8259 46.8643 18.7674 46.789 18.7001 46.7221L18.6561 46.6801L18.6581 46.6821C18.3599 46.3891 17.9653 46.2146 17.5479 46.1914C17.1305 46.1683 16.7189 46.2979 16.3901 46.5561L16.3841 46.5621L14.4201 44.5981C14.6808 44.2696 14.8124 43.8572 14.7903 43.4384C14.7682 43.0196 14.5939 42.6233 14.3001 42.3241C14.0019 42.0311 13.6073 41.8566 13.1899 41.8334C12.7725 41.8103 12.3609 41.9399 12.0321 42.1981L12.0261 42.2041L10.0621 40.2401C10.3228 39.9116 10.4544 39.4992 10.4323 39.0804C10.4102 38.6616 10.2359 38.2653 9.94211 37.9661C9.64395 37.6731 9.24927 37.4986 8.83186 37.4754C8.41445 37.4523 8.00289 37.5819 7.6741 37.8401L7.66811 37.8461L5.7041 35.8821C5.96475 35.5536 6.09641 35.1412 6.07431 34.7224C6.05221 34.3036 5.87788 33.9073 5.58411 33.6081C5.28595 33.3151 4.89127 33.1406 4.47386 33.1174C4.05645 33.0943 3.64489 33.2239 3.31611 33.4821L3.31011 33.4881L1.34611 31.5241C1.60675 31.1956 1.73841 30.7832 1.71631 30.3644C1.69421 29.9456 1.51988 29.5493 1.22611 29.2501C1.17811 29.2021 1.10811 29.1781 1.05811 29.1301L28.8901 1.2981C28.9101 1.3461 28.9421 1.3961 28.9841 1.4381L29.0141 1.4661L29.0121 1.4641L29.0241 1.4761C29.1798 1.63199 29.3646 1.75567 29.5681 1.84006C29.7717 1.92444 29.9898 1.96787 30.2101 1.96787C30.4304 1.96787 30.6486 1.92444 30.8521 1.84006C31.0556 1.75567 31.2404 1.63199 31.3961 1.4761L31.4081 1.4641C31.4561 1.4161 31.4561 1.3681 31.5041 1.3201L33.4701 3.2861C33.423 3.30048 33.3803 3.32664 33.3461 3.3621L33.3261 3.3841C33.1607 3.56328 33.0339 3.7746 32.9537 4.00491C32.8736 4.23522 32.8417 4.47957 32.8601 4.72275C32.8785 4.96592 32.9467 5.2027 33.0606 5.41833C33.1745 5.63396 33.3316 5.82383 33.5221 5.9761L33.5161 5.9701L33.5281 5.9821C33.6838 6.13799 33.8686 6.26167 34.0721 6.34606C34.2757 6.43044 34.4938 6.47387 34.7141 6.47387C34.9344 6.47387 35.1526 6.43044 35.3561 6.34606C35.5596 6.26167 35.7444 6.13799 35.9001 5.9821L35.9121 5.9701C35.9601 5.9221 35.9601 5.8741 36.0081 5.8261L37.9721 7.7901C37.925 7.80448 37.8823 7.83064 37.8481 7.8661L37.8281 7.8881C37.5104 8.20582 37.3319 8.63676 37.3319 9.0861C37.3319 9.53543 37.5104 9.96637 37.8281 10.2841C38.1458 10.6018 38.5768 10.7803 39.0261 10.7803C39.4754 10.7803 39.9064 10.6018 40.2241 10.2841C40.2721 10.2361 40.2721 10.1881 40.3201 10.1401L42.2841 12.1041C42.2361 12.1187 42.1926 12.1456 42.1581 12.1821L42.1401 12.2021C41.9828 12.3594 41.858 12.5462 41.7728 12.7517C41.6877 12.9573 41.6439 13.1776 41.6439 13.4001C41.6439 13.6226 41.6877 13.8429 41.7728 14.0484C41.858 14.254 41.9828 14.4408 42.1401 14.5981C42.2974 14.7554 42.4842 14.8802 42.6898 14.9654C42.8953 15.0505 43.1156 15.0943 43.3381 15.0943C43.5606 15.0943 43.7809 15.0505 43.9865 14.9654C44.192 14.8802 44.3788 14.7554 44.5361 14.5981C44.5841 14.5501 44.5841 14.5021 44.6321 14.4541L46.5961 16.4181C46.549 16.4325 46.5063 16.4586 46.4721 16.4941L46.4521 16.5161L46.4401 16.5281C46.2842 16.6838 46.1605 16.8686 46.0761 17.0721C45.9918 17.2756 45.9483 17.4938 45.9483 17.7141C45.9483 17.9344 45.9918 18.1525 46.0761 18.3561C46.1605 18.5596 46.2842 18.7444 46.4401 18.9001L46.4501 18.9101L46.4881 18.9501C46.5574 19.0198 46.6354 19.0803 46.7201 19.1301L46.7141 19.1261L18.8741 46.9461ZM37.3941 25.1681L37.6341 25.4081C37.7304 25.498 37.8578 25.547 37.9895 25.5447C38.1212 25.5425 38.2469 25.4892 38.34 25.396C38.4332 25.3029 38.4865 25.1772 38.4887 25.0455C38.491 24.9138 38.442 24.7864 38.3521 24.6901L38.1081 24.4461C38.0118 24.3562 37.8844 24.3072 37.7527 24.3095C37.621 24.3117 37.4953 24.365 37.4022 24.4582C37.309 24.5513 37.2557 24.677 37.2535 24.8087C37.2512 24.9404 37.3002 25.0678 37.3901 25.1641L37.3941 25.1681ZM37.3701 15.6601L41.5861 19.8761C41.6824 19.966 41.8098 20.015 41.9415 20.0127C42.0732 20.0105 42.1989 19.9572 42.292 19.864C42.3852 19.7709 42.4385 19.6452 42.4407 19.5135C42.443 19.3818 42.394 19.2544 42.3041 19.1581L38.0881 14.9421C37.9918 14.8522 37.8644 14.8032 37.7327 14.8055C37.601 14.8077 37.4753 14.861 37.3822 14.9542C37.289 15.0473 37.2357 15.173 37.2335 15.3047C37.2312 15.4364 37.2802 15.5638 37.3701 15.6601ZM26.4661 7.8801L40.0221 21.4361C40.1184 21.526 40.2458 21.575 40.3775 21.5727C40.5092 21.5705 40.6349 21.5172 40.728 21.424C40.8212 21.3309 40.8745 21.2052 40.8767 21.0735C40.879 20.9418 40.83 20.8144 40.7401 20.7181L27.1841 7.1621C27.0878 7.0722 26.9604 7.0232 26.8287 7.02546C26.697 7.02771 26.5713 7.08103 26.4782 7.17417C26.385 7.26731 26.3317 7.39299 26.3295 7.52469C26.3272 7.65639 26.3762 7.78382 26.4661 7.8801ZM30.7541 28.9341H31.3301C31.4665 28.9231 31.5945 28.864 31.6912 28.7672C31.788 28.6705 31.8471 28.5425 31.8581 28.4061V28.4081C31.8534 28.3415 31.8353 28.2765 31.8048 28.2171C31.7743 28.1577 31.732 28.1051 31.6806 28.0625C31.6292 28.0199 31.5697 27.9881 31.5057 27.9691C31.4416 27.9502 31.3744 27.9444 31.3081 27.9521H27.0441C26.9779 27.951 26.9121 27.9633 26.8507 27.9881C26.7893 28.0129 26.7336 28.0499 26.6867 28.0967C26.6399 28.1435 26.603 28.1993 26.5781 28.2607C26.5533 28.3221 26.541 28.3879 26.5421 28.4541C26.5349 28.5362 26.5516 28.6186 26.5903 28.6914C26.629 28.7642 26.688 28.8242 26.7601 28.8641L26.7581 28.8621L21.7521 33.8681C21.7107 33.798 21.6506 33.7409 21.5785 33.7031C21.5064 33.6653 21.4253 33.6483 21.3441 33.6541C21.2776 33.6525 21.2115 33.6643 21.1498 33.6889C21.088 33.7136 21.0319 33.7504 20.9848 33.7974C20.9377 33.8443 20.9006 33.9002 20.8757 33.9619C20.8508 34.0236 20.8387 34.0896 20.8401 34.1561L20.8381 38.4181C20.837 38.4843 20.8493 38.5501 20.8741 38.6115C20.899 38.6729 20.9359 38.7286 20.9827 38.7755C21.0296 38.8223 21.0853 38.8592 21.1467 38.8841C21.2081 38.9089 21.2739 38.9212 21.3401 38.9201C21.4765 38.9091 21.6045 38.85 21.7012 38.7532C21.798 38.6565 21.8571 38.5285 21.8681 38.3921V38.3941V37.8181L30.7541 28.9341ZM35.7121 23.4961L35.9521 23.7361C36.0484 23.826 36.1758 23.875 36.3075 23.8727C36.4392 23.8705 36.5649 23.8172 36.658 23.724C36.7512 23.6309 36.8045 23.5052 36.8067 23.3735C36.809 23.2418 36.76 23.1144 36.6701 23.0181L36.4301 22.7781C36.3338 22.6882 36.2064 22.6392 36.0747 22.6415C35.943 22.6437 35.8173 22.697 35.7242 22.7902C35.631 22.8833 35.5777 23.009 35.5755 23.1407C35.5732 23.2724 35.6222 23.3998 35.7121 23.4961ZM34.0361 21.8201L34.2761 22.0601C34.3724 22.15 34.4998 22.199 34.6315 22.1967C34.7632 22.1945 34.8889 22.1412 34.982 22.048C35.0752 21.9549 35.1285 21.8292 35.1307 21.6975C35.133 21.5658 35.084 21.4384 34.9941 21.3421L34.7541 21.1021C34.6578 21.0122 34.5304 20.9632 34.3987 20.9655C34.267 20.9677 34.1413 21.021 34.0482 21.1142C33.955 21.2073 33.9017 21.333 33.8995 21.4647C33.8972 21.5964 33.9462 21.7238 34.0361 21.8201ZM32.3601 20.1441L32.6001 20.3841C32.6964 20.474 32.8238 20.523 32.9555 20.5207C33.0872 20.5185 33.2129 20.4652 33.306 20.372C33.3992 20.2789 33.4525 20.1532 33.4547 20.0215C33.457 19.8898 33.408 19.7624 33.3181 19.6661L33.0761 19.4241C32.9798 19.3342 32.8524 19.2852 32.7207 19.2875C32.589 19.2897 32.4633 19.343 32.3702 19.4362C32.277 19.5293 32.2237 19.655 32.2215 19.7867C32.2192 19.9184 32.2682 20.0458 32.3581 20.1421L32.3601 20.1441ZM12.5041 23.6161L12.5761 23.6881C12.0964 24.3417 11.8664 25.1454 11.9277 25.9539C11.9889 26.7623 12.3374 27.5222 12.9101 28.0961L17.7781 32.9641C18.1532 33.339 18.6618 33.5497 19.1921 33.5497C19.7224 33.5497 20.231 33.339 20.6061 32.9641L25.6361 27.9341C26.011 27.559 26.2217 27.0504 26.2217 26.5201C26.2217 25.9898 26.011 25.4811 25.6361 25.1061L20.7681 20.2381C20.1967 19.6669 19.4403 19.3182 18.6349 19.2548C17.8295 19.1914 17.0278 19.4173 16.3741 19.8921L16.3581 19.9041L16.2861 19.8321C16.1894 19.7398 16.0608 19.6883 15.9271 19.6883C15.7934 19.6883 15.6648 19.7398 15.5681 19.8321L12.5041 22.8961C12.4118 22.9928 12.3603 23.1214 12.3603 23.2551C12.3603 23.3888 12.4118 23.5174 12.5041 23.6141V23.6161ZM30.6781 18.4741L30.9181 18.7141C31.0144 18.804 31.1418 18.853 31.2735 18.8507C31.4052 18.8485 31.5309 18.7952 31.624 18.702C31.7172 18.6089 31.7705 18.4832 31.7727 18.3515C31.775 18.2198 31.726 18.0924 31.6361 17.9961L31.3941 17.7541C31.2978 17.6642 31.1704 17.6152 31.0387 17.6175C30.907 17.6197 30.7813 17.673 30.6882 17.7662C30.595 17.8593 30.5417 17.985 30.5395 18.1167C30.5372 18.2484 30.5862 18.3758 30.6761 18.4721L30.6781 18.4741ZM29.0021 16.7981L29.2401 17.0361C29.3364 17.126 29.4638 17.175 29.5955 17.1727C29.7272 17.1705 29.8529 17.1172 29.946 17.024C30.0392 16.9309 30.0925 16.8052 30.0947 16.6735C30.097 16.5418 30.048 16.4144 29.9581 16.3181L29.7201 16.0801C29.6238 15.9902 29.4964 15.9412 29.3647 15.9435C29.233 15.9457 29.1073 15.999 29.0142 16.0922C28.921 16.1853 28.8677 16.311 28.8655 16.4427C28.8632 16.5744 28.9122 16.7018 29.0021 16.7981ZM27.3241 15.1201L27.5641 15.3601C27.6604 15.45 27.7878 15.499 27.9195 15.4967C28.0512 15.4945 28.1769 15.4412 28.27 15.348C28.3632 15.2549 28.4165 15.1292 28.4187 14.9975C28.421 14.8658 28.372 14.7384 28.2821 14.6421L28.0421 14.4021C27.9458 14.3122 27.8184 14.2632 27.6867 14.2655C27.555 14.2677 27.4293 14.321 27.3362 14.4142C27.243 14.5073 27.1897 14.633 27.1875 14.7647C27.1852 14.8964 27.2342 15.0238 27.3241 15.1201ZM30.6761 9.1321L31.8741 10.3301C31.9704 10.42 32.0978 10.469 32.2295 10.4667C32.3612 10.4645 32.4869 10.4112 32.58 10.318C32.6732 10.2249 32.7265 10.0992 32.7287 9.9675C32.731 9.8358 32.682 9.70837 32.5921 9.61209L31.3941 8.41409C31.2978 8.32419 31.1704 8.27521 31.0387 8.27746C30.907 8.27971 30.7813 8.33303 30.6882 8.42617C30.595 8.51931 30.5417 8.64499 30.5395 8.77669C30.5372 8.9084 30.5862 9.03582 30.6761 9.1321ZM25.6481 13.4441L25.8881 13.6841C25.9844 13.774 26.1118 13.823 26.2435 13.8207C26.3752 13.8185 26.5009 13.7652 26.594 13.672C26.6872 13.5789 26.7405 13.4532 26.7427 13.3215C26.745 13.1898 26.696 13.0624 26.6061 12.9661L26.3661 12.7261C26.2698 12.6362 26.1424 12.5872 26.0107 12.5895C25.879 12.5917 25.7533 12.645 25.6602 12.7382C25.567 12.8313 25.5137 12.957 25.5115 13.0887C25.5092 13.2204 25.5582 13.3478 25.6481 13.4441ZM28.0661 6.5221L29.2581 7.7141C29.3544 7.804 29.4818 7.85299 29.6135 7.85073C29.7452 7.84848 29.8709 7.79516 29.964 7.70202C30.0572 7.60888 30.1105 7.4832 30.1127 7.3515C30.115 7.2198 30.066 7.09237 29.9761 6.9961L28.7841 5.8041C28.6878 5.7142 28.5604 5.66521 28.4287 5.66746C28.297 5.66971 28.1713 5.72303 28.0782 5.81617C27.985 5.90931 27.9317 6.03499 27.9295 6.16669C27.9272 6.2984 27.9762 6.42582 28.0661 6.5221ZM23.9721 11.7661L24.2121 12.0061C24.3084 12.096 24.4358 12.145 24.5675 12.1427C24.6992 12.1405 24.8249 12.0872 24.918 11.994C25.0112 11.9009 25.0645 11.7752 25.0667 11.6435C25.069 11.5118 25.02 11.3844 24.9301 11.2881L24.6881 11.0461C24.5918 10.9562 24.4644 10.9072 24.3327 10.9095C24.201 10.9117 24.0753 10.965 23.9822 11.0582C23.889 11.1513 23.8357 11.277 23.8335 11.4087C23.8312 11.5404 23.8802 11.6678 23.9701 11.7641L23.9721 11.7661ZM22.2941 10.0901L22.5341 10.3301C22.6304 10.42 22.7578 10.469 22.8895 10.4667C23.0212 10.4645 23.1469 10.4112 23.24 10.318C23.3332 10.2249 23.3865 10.0992 23.3887 9.9675C23.391 9.8358 23.342 9.70837 23.2521 9.61209L23.0101 9.37009C22.9138 9.28019 22.7864 9.2312 22.6547 9.23346C22.523 9.23571 22.3973 9.28903 22.3042 9.38217C22.211 9.47531 22.1577 9.60099 22.1555 9.73269C22.1532 9.8644 22.2022 9.99182 22.2921 10.0881L22.2941 10.0901ZM21.8701 36.3821L21.8461 35.1601L28.0961 28.9101L29.3181 28.9341L21.8701 36.3821ZM19.8801 32.2381C19.6954 32.4217 19.4455 32.5247 19.1851 32.5247C18.9247 32.5247 18.6748 32.4217 18.4901 32.2381L16.2641 30.0121L22.6841 23.5921L24.9101 25.8181C25.0937 26.0028 25.1967 26.2527 25.1967 26.5131C25.1967 26.7735 25.0937 27.0234 24.9101 27.2081L19.8801 32.2381ZM21.5561 27.8321C21.7739 28.0502 22.0515 28.1987 22.3538 28.259C22.6561 28.3193 22.9694 28.2885 23.2542 28.1707C23.539 28.0528 23.7825 27.8531 23.9537 27.5969C24.125 27.3406 24.2164 27.0393 24.2164 26.7311C24.2164 26.4229 24.125 26.1216 23.9537 25.8653C23.7825 25.6091 23.539 25.4094 23.2542 25.2915C22.9694 25.1736 22.6561 25.1429 22.3538 25.2032C22.0515 25.2634 21.7739 25.412 21.5561 25.6301C21.2687 25.9245 21.1077 26.3196 21.1077 26.7311C21.1077 27.1426 21.2687 27.5377 21.5561 27.8321ZM18.2521 31.1381L18.2541 31.1401C18.3983 31.2847 18.5696 31.3994 18.7582 31.4777C18.9467 31.5559 19.1489 31.5962 19.3531 31.5962C19.5573 31.5962 19.7595 31.5559 19.9481 31.4777C20.1366 31.3994 20.3079 31.2847 20.4521 31.1401L20.4541 31.1381C21.0521 30.5261 21.0521 29.5481 20.4541 28.9361C19.8561 28.3241 20.4521 28.9341 20.4521 28.9341C20.3079 28.7895 20.1366 28.6748 19.9481 28.5965C19.7595 28.5182 19.5573 28.478 19.3531 28.478C19.1489 28.478 18.9467 28.5182 18.7582 28.5965C18.5696 28.6748 18.3983 28.7895 18.2541 28.9341L18.2521 28.9361C17.9647 29.2305 17.8037 29.6256 17.8037 30.0371C17.8037 30.4486 17.9647 30.8437 18.2521 31.1381ZM22.2521 27.0901C22.1768 27.0141 22.1257 26.9175 22.1052 26.8125C22.0846 26.7075 22.0957 26.5988 22.1368 26.5C22.178 26.4013 22.2475 26.3169 22.3365 26.2576C22.4255 26.1983 22.5301 26.1666 22.6371 26.1666C22.7441 26.1666 22.8487 26.1983 22.9377 26.2576C23.0267 26.3169 23.0962 26.4013 23.1374 26.5C23.1785 26.5988 23.1896 26.7075 23.169 26.8125C23.1485 26.9175 23.0974 27.0141 23.0221 27.0901L23.0161 27.0961C22.9157 27.196 22.7798 27.2521 22.6381 27.2521C22.4964 27.2521 22.3605 27.196 22.2601 27.0961L22.2541 27.0901H22.2521ZM18.9461 30.3941C18.8698 30.3181 18.8178 30.2212 18.7967 30.1156C18.7756 30.01 18.7862 29.9005 18.8273 29.801C18.8685 29.7015 18.9382 29.6164 19.0277 29.5566C19.1172 29.4967 19.2224 29.4648 19.3301 29.4648C19.4378 29.4648 19.543 29.4967 19.6325 29.5566C19.722 29.6164 19.7918 29.7015 19.8329 29.801C19.874 29.9005 19.8847 30.01 19.8635 30.1156C19.8424 30.2212 19.7904 30.3181 19.7141 30.3941L19.7081 30.4001C19.6077 30.5 19.4718 30.5561 19.3301 30.5561C19.1884 30.5561 19.0525 30.5 18.9521 30.4001L18.9461 30.3941ZM15.5441 29.2941L13.6281 27.3781L13.6161 27.3661C13.3973 27.1473 13.2238 26.8876 13.1053 26.6017C12.9869 26.3159 12.926 26.0095 12.926 25.7001C12.926 25.3907 12.9869 25.0843 13.1053 24.7985C13.2238 24.5126 13.3973 24.2529 13.6161 24.0341L13.6261 24.0241L16.6901 20.9601L16.7021 20.9481C17.6221 20.0281 19.1141 20.0281 20.0341 20.9481L20.0441 20.9581L21.9601 22.8741L15.5441 29.2941Z" fill="#0076CB"/>
</svg>
