<svg width="48" height="48" viewBox="0 0 48 48" fill="none" xmlns="http://www.w3.org/2000/svg">
<path d="M15 17C15.7879 17 16.5681 16.8448 17.2961 16.5433C18.0241 16.2417 18.6855 15.7998 19.2426 15.2426C19.7998 14.6855 20.2417 14.0241 20.5433 13.2961C20.8448 12.5681 21 11.7879 21 11C21 10.2121 20.8448 9.43185 20.5433 8.7039C20.2417 7.97595 19.7998 7.31451 19.2426 6.75736C18.6855 6.20021 18.0241 5.75825 17.2961 5.45672C16.5681 5.15519 15.7879 5 15 5C13.4087 5 11.8826 5.63214 10.7574 6.75736C9.63214 7.88258 9 9.4087 9 11C9 12.5913 9.63214 14.1174 10.7574 15.2426C11.8826 16.3679 13.4087 17 15 17ZM33 17C33.7879 17 34.5681 16.8448 35.2961 16.5433C36.0241 16.2417 36.6855 15.7998 37.2426 15.2426C37.7998 14.6855 38.2417 14.0241 38.5433 13.2961C38.8448 12.5681 39 11.7879 39 11C39 10.2121 38.8448 9.43185 38.5433 8.7039C38.2417 7.97595 37.7998 7.31451 37.2426 6.75736C36.6855 6.20021 36.0241 5.75825 35.2961 5.45672C34.5681 5.15519 33.7879 5 33 5C31.4087 5 29.8826 5.63214 28.7574 6.75736C27.6321 7.88258 27 9.4087 27 11C27 12.5913 27.6321 14.1174 28.7574 15.2426C29.8826 16.3679 31.4087 17 33 17ZM4 22.446C4 21.9935 4.08913 21.5454 4.26231 21.1273C4.43549 20.7092 4.68932 20.3293 5.00931 20.0093C5.3293 19.6893 5.70919 19.4355 6.12727 19.2623C6.54536 19.0891 6.99346 19 7.446 19H17.07C16.3667 20.2156 15.9976 21.5956 16 23C15.9987 24.1352 16.2395 25.2576 16.7065 26.2922C17.1735 27.3269 17.8558 28.25 18.708 29H16.446C15.4933 28.9992 14.557 29.2487 13.731 29.7234C12.9049 30.1981 12.218 30.8814 11.739 31.705C8.517 31.073 6.559 29.502 5.419 27.737C4 25.54 4 23.27 4 22.877V22.446ZM31.554 29C32.5067 28.9992 33.443 29.2487 34.269 29.7234C35.0951 30.1981 35.782 30.8814 36.261 31.705C39.483 31.073 41.441 29.502 42.581 27.737C44 25.54 44 23.27 44 22.877V22.447C44.0001 21.9944 43.9111 21.5462 43.738 21.128C43.5649 20.7098 43.311 20.3298 42.991 20.0097C42.671 19.6896 42.2911 19.4356 41.873 19.2624C41.4548 19.0892 41.0066 19 40.554 19H30.93C31.6333 20.2156 32.0024 21.5956 32 23C32.0013 24.1352 31.7605 25.2576 31.2935 26.2922C30.8265 27.3269 30.1442 28.25 29.292 29H31.554ZM30 23C30 24.5913 29.3679 26.1174 28.2426 27.2426C27.1174 28.3679 25.5913 29 24 29C22.4087 29 20.8826 28.3679 19.7574 27.2426C18.6321 26.1174 18 24.5913 18 23C18 21.4087 18.6321 19.8826 19.7574 18.7574C20.8826 17.6321 22.4087 17 24 17C25.5913 17 27.1174 17.6321 28.2426 18.7574C29.3679 19.8826 30 21.4087 30 23ZM13 34.446C13 33.5321 13.3631 32.6556 14.0093 32.0093C14.6556 31.3631 15.5321 31 16.446 31H31.554C32.4679 31 33.3444 31.3631 33.9907 32.0093C34.6369 32.6556 35 33.5321 35 34.446V34.877C35 35.271 35 37.54 33.581 39.737C32.098 42.033 29.233 44 24 44C18.767 44 15.902 42.033 14.419 39.737C13 37.54 13 35.27 13 34.877V34.446Z" fill="#3B82F6"/>
</svg>
