<svg width="35" height="47" viewBox="0 0 35 47" fill="none" xmlns="http://www.w3.org/2000/svg">
<path d="M27.2555 36.2947L27.147 36.0873L27.2017 36.0096L27.2564 35.9318C28.2317 35.5333 29.1542 35.0161 30.003 34.392C30.8228 33.7776 31.3719 32.8809 31.6551 31.6953L31.8615 30.7468V6.24668C31.8615 5.65532 31.6849 5.04188 31.3364 4.41788C30.9899 3.78527 30.5479 3.20987 30.026 2.71196C29.5058 2.21056 28.916 1.78669 28.275 1.4534C27.626 1.12316 27.0078 0.959961 26.4135 0.959961H8.87913C8.31945 0.959961 7.71561 1.11356 7.06953 1.42748C6.42137 1.74215 5.82194 2.14856 5.28969 2.6342C4.76007 3.10772 4.30958 3.66289 3.95529 4.27868C3.60585 4.89788 3.43017 5.495 3.43017 6.09308V30.958C3.43017 31.3766 3.54057 31.8134 3.74409 32.2665C3.95529 32.7216 4.21641 33.1468 4.52937 33.5443C4.84233 33.9532 5.18697 34.319 5.55369 34.6483C5.92041 34.9776 6.27657 35.2502 6.62697 35.4585C6.79593 35.5296 7.10601 35.639 7.54569 35.7782C7.97577 35.9164 8.17737 36.0192 8.14473 36.0864L0.967773 46.9785H5.15433L10.3931 39.3859H24.8459L30.0788 46.9785H34.3201L27.2555 36.2947ZM13.4823 3.0518C13.4823 2.87612 13.5659 2.6966 13.7444 2.4998C13.9163 2.30876 14.09 2.2166 14.2676 2.2166H20.9703C21.0375 2.2166 21.1825 2.2838 21.3908 2.42108C21.5972 2.56124 21.7019 2.70044 21.7019 2.83964V5.40476C21.7019 5.58044 21.6135 5.74172 21.4417 5.87516C21.2651 6.01916 21.1057 6.09212 20.9713 6.09212H14.2177L14.0046 5.92604C13.8807 5.84326 13.767 5.74628 13.6657 5.63708C13.6099 5.58934 13.5647 5.53041 13.5331 5.46409C13.5015 5.39777 13.4842 5.32555 13.4823 5.25212V3.0518ZM6.72681 10.2249C6.72681 9.87644 6.80937 9.53468 6.96393 9.20156C7.11945 8.87036 7.32201 8.56796 7.56585 8.28476C7.81161 8.00444 8.09961 7.7846 8.42793 7.60892C8.74274 7.43794 9.09498 7.34757 9.45321 7.34588H25.7377C26.0468 7.34588 26.3617 7.41884 26.6756 7.55132C26.9905 7.69148 27.2775 7.88732 27.5415 8.12924C27.8046 8.37116 28.011 8.63996 28.1703 8.91836C28.3259 9.191 28.4027 9.49052 28.4027 9.80444V15.3561C28.4027 15.671 28.3182 15.9686 28.1435 16.2681C27.9679 16.5728 27.7371 16.842 27.4628 17.062C27.1913 17.2814 26.8917 17.4635 26.5719 17.6035C26.2785 17.7437 25.9573 17.8159 25.6321 17.8147H9.55785L9.29289 17.7676C9.18409 17.7427 9.07822 17.7064 8.97705 17.6592C8.38665 17.5574 7.86441 17.2416 7.40937 16.7164C6.95433 16.1923 6.72681 15.6182 6.72681 14.9913V10.2249ZM11.5739 31.8499C11.0334 32.4076 10.3566 32.686 9.55785 32.686C8.75433 32.686 8.09865 32.4076 7.58985 31.8499C7.08489 31.2931 6.83241 30.6076 6.83241 29.8041C6.83241 29.0716 7.09545 28.4371 7.62057 27.8976C8.14281 27.3552 8.78889 27.0806 9.55785 27.0806C10.3566 27.0806 11.0324 27.3398 11.5739 27.838C12.1153 28.3497 12.3851 29.015 12.3851 29.8588C12.3851 30.6278 12.1153 31.2931 11.5739 31.8499ZM23.5633 31.8499C23.0238 31.2931 22.7492 30.6076 22.7492 29.8041C22.7492 28.9996 23.0363 28.3497 23.6132 27.838C24.1692 27.3438 24.8891 27.0738 25.6331 27.0806C26.4299 27.0806 27.0884 27.3542 27.5943 27.8976C28.0983 28.4371 28.3556 29.0726 28.3556 29.8041C28.3556 30.6076 28.0916 31.2931 27.5684 31.8499C27.0414 32.4076 26.3819 32.686 25.5755 32.686C24.7748 32.686 24.1028 32.4076 23.5633 31.8499Z" fill="#0076CB"/>
</svg>
