<svg width="52" height="52" viewBox="0 0 52 52" fill="none" xmlns="http://www.w3.org/2000/svg">
<path fill-rule="evenodd" clip-rule="evenodd" d="M37.9168 43.3333C39.3534 43.3333 40.7312 42.7626 41.747 41.7467C42.7628 40.7309 43.3335 39.3532 43.3335 37.9166C43.3335 36.48 42.7628 35.1022 41.747 34.0864C40.7312 33.0706 39.3534 32.4999 37.9168 32.4999C36.4802 32.4999 35.1025 33.0706 34.0867 34.0864C33.0708 35.1022 32.5002 36.48 32.5002 37.9166C32.5002 39.3532 33.0708 40.7309 34.0867 41.7467C35.1025 42.7626 36.4802 43.3332 37.9168 43.3333ZM37.9168 45.4999C39.9281 45.4999 41.8569 44.701 43.2791 43.2788C44.7012 41.8567 45.5002 39.9278 45.5002 37.9166C45.5002 35.9054 44.7012 33.9765 43.2791 32.5544C41.8569 31.1322 39.9281 30.3333 37.9168 30.3333C35.9056 30.3333 33.9768 31.1322 32.5546 32.5544C31.1325 33.9765 30.3335 35.9054 30.3335 37.9166C30.3335 39.9278 31.1325 41.8567 32.5546 43.2788C33.9768 44.701 35.9056 45.4999 37.9168 45.4999Z" fill="#0076CB"/>
<path fill-rule="evenodd" clip-rule="evenodd" d="M37.9168 34.125C38.2041 34.125 38.4797 34.2391 38.6829 34.4423C38.886 34.6455 39.0002 34.921 39.0002 35.2083V37.4682L39.7661 38.2341C39.9634 38.4384 40.0726 38.7121 40.0701 38.9961C40.0677 39.2801 39.9537 39.5519 39.7529 39.7527C39.552 39.9536 39.2803 40.0675 38.9963 40.07C38.7122 40.0724 38.4386 39.9633 38.2342 39.7659L36.8335 38.3652V35.2083C36.8335 34.921 36.9476 34.6455 37.1508 34.4423C37.354 34.2391 37.6295 34.125 37.9168 34.125ZM15.1668 24.9167H13.0002V27.0833H15.1668V24.9167ZM13.0002 22.75C12.4255 22.75 11.8744 22.9783 11.4681 23.3846C11.0618 23.7909 10.8335 24.342 10.8335 24.9167V27.0833C10.8335 27.658 11.0618 28.2091 11.4681 28.6154C11.8744 29.0217 12.4255 29.25 13.0002 29.25H15.1668C15.7415 29.25 16.2926 29.0217 16.6989 28.6154C17.1052 28.2091 17.3335 27.658 17.3335 27.0833V24.9167C17.3335 24.342 17.1052 23.7909 16.6989 23.3846C16.2926 22.9783 15.7415 22.75 15.1668 22.75H13.0002ZM23.8335 24.9167H21.6668V27.0833H23.8335V24.9167ZM21.6668 22.75C21.0922 22.75 20.5411 22.9783 20.1348 23.3846C19.7284 23.7909 19.5002 24.342 19.5002 24.9167V27.0833C19.5002 27.658 19.7284 28.2091 20.1348 28.6154C20.5411 29.0217 21.0922 29.25 21.6668 29.25H23.8335C24.4081 29.25 24.9592 29.0217 25.3656 28.6154C25.7719 28.2091 26.0002 27.658 26.0002 27.0833V24.9167C26.0002 24.342 25.7719 23.7909 25.3656 23.3846C24.9592 22.9783 24.4081 22.75 23.8335 22.75H21.6668ZM32.5002 24.9167H30.3335V27.0833H32.5002V24.9167ZM30.3335 22.75C29.7589 22.75 29.2078 22.9783 28.8014 23.3846C28.3951 23.7909 28.1668 24.342 28.1668 24.9167V27.0833C28.1668 27.658 28.3951 28.2091 28.8014 28.6154C29.2078 29.0217 29.7589 29.25 30.3335 29.25H32.5002C33.0748 29.25 33.6259 29.0217 34.0322 28.6154C34.4386 28.2091 34.6668 27.658 34.6668 27.0833V24.9167C34.6668 24.342 34.4386 23.7909 34.0322 23.3846C33.6259 22.9783 33.0748 22.75 32.5002 22.75H30.3335ZM15.1668 33.5833H13.0002V35.75H15.1668V33.5833ZM13.0002 31.4167C12.4255 31.4167 11.8744 31.6449 11.4681 32.0513C11.0618 32.4576 10.8335 33.0087 10.8335 33.5833V35.75C10.8335 36.3246 11.0618 36.8757 11.4681 37.2821C11.8744 37.6884 12.4255 37.9167 13.0002 37.9167H15.1668C15.7415 37.9167 16.2926 37.6884 16.6989 37.2821C17.1052 36.8757 17.3335 36.3246 17.3335 35.75V33.5833C17.3335 33.0087 17.1052 32.4576 16.6989 32.0513C16.2926 31.6449 15.7415 31.4167 15.1668 31.4167H13.0002ZM23.8335 33.5833H21.6668V35.75H23.8335V33.5833ZM21.6668 31.4167C21.0922 31.4167 20.5411 31.6449 20.1348 32.0513C19.7284 32.4576 19.5002 33.0087 19.5002 33.5833V35.75C19.5002 36.3246 19.7284 36.8757 20.1348 37.2821C20.5411 37.6884 21.0922 37.9167 21.6668 37.9167H23.8335C24.4081 37.9167 24.9592 37.6884 25.3656 37.2821C25.7719 36.8757 26.0002 36.3246 26.0002 35.75V33.5833C26.0002 33.0087 25.7719 32.4576 25.3656 32.0513C24.9592 31.6449 24.4081 31.4167 23.8335 31.4167H21.6668Z" fill="#0076CB"/>
<path fill-rule="evenodd" clip-rule="evenodd" d="M8.66667 13C8.66667 12.7127 8.7808 12.4371 8.98397 12.234C9.18713 12.0308 9.46268 11.9167 9.75 11.9167H15.1667V9.75H9.75C8.88805 9.75 8.0614 10.0924 7.4519 10.7019C6.84241 11.3114 6.5 12.138 6.5 13V39C6.5 39.862 6.84241 40.6886 7.4519 41.2981C8.0614 41.9076 8.88805 42.25 9.75 42.25H31.6929C31.2309 41.5883 30.878 40.8568 30.6475 40.0833H9.75C9.46268 40.0833 9.18713 39.9692 8.98397 39.766C8.7808 39.5629 8.66667 39.2873 8.66667 39V13ZM36.8333 30.4092C37.5519 30.3064 38.2814 30.3064 39 30.4092V13C39 12.138 38.6576 11.3114 38.0481 10.7019C37.4386 10.0924 36.612 9.75 35.75 9.75H32.5V11.9167H35.75C36.0373 11.9167 36.3129 12.0308 36.516 12.234C36.7192 12.4371 36.8333 12.7127 36.8333 13V30.4092ZM17.3333 11.9167H28.7766V9.75H17.3333V11.9167Z" fill="#0076CB"/>
<path fill-rule="evenodd" clip-rule="evenodd" d="M30.3335 9.75H17.3335V13C17.3335 13.2873 17.2194 13.5629 17.0162 13.766C16.813 13.9692 16.5375 14.0833 16.2502 14.0833C15.9628 14.0833 15.6873 13.9692 15.4841 13.766C15.281 13.5629 15.1668 13.2873 15.1668 13V9.75H9.75016C9.17553 9.75 8.62443 9.97827 8.2181 10.3846C7.81177 10.7909 7.5835 11.342 7.5835 11.9167V17.3333C7.5835 17.908 7.81177 18.4591 8.2181 18.8654C8.62443 19.2717 9.17553 19.5 9.75016 19.5H35.7502C36.3248 19.5 36.8759 19.2717 37.2822 18.8654C37.6886 18.4591 37.9168 17.908 37.9168 17.3333V11.9167C37.9168 11.342 37.6886 10.7909 37.2822 10.3846C36.8759 9.97827 36.3248 9.75 35.7502 9.75H32.5002V13C32.5002 13.2873 32.386 13.5629 32.1829 13.766C31.9797 13.9692 31.7041 14.0833 31.4168 14.0833C31.1295 14.0833 30.854 13.9692 30.6508 13.766C30.4476 13.5629 30.3335 13.2873 30.3335 13V9.75Z" fill="#0076CB"/>
<path fill-rule="evenodd" clip-rule="evenodd" d="M38.9998 19.4999H8.6665V17.3333H38.9998V19.4999Z" fill="#0076CB"/>
<path d="M13 7.58333C13 7.29602 13.1141 7.02047 13.3173 6.8173C13.5205 6.61414 13.796 6.5 14.0833 6.5C14.3707 6.5 14.6462 6.61414 14.8494 6.8173C15.0525 7.02047 15.1667 7.29602 15.1667 7.58333V11.9167C15.1667 12.204 15.0525 12.4795 14.8494 12.6827C14.6462 12.8859 14.3707 13 14.0833 13C13.796 13 13.5205 12.8859 13.3173 12.6827C13.1141 12.4795 13 12.204 13 11.9167V7.58333ZM28.1667 7.58333C28.1667 7.29602 28.2808 7.02047 28.484 6.8173C28.6871 6.61414 28.9627 6.5 29.25 6.5C29.5373 6.5 29.8129 6.61414 30.016 6.8173C30.2192 7.02047 30.3333 7.29602 30.3333 7.58333V11.9167C30.3333 12.204 30.2192 12.4795 30.016 12.6827C29.8129 12.8859 29.5373 13 29.25 13C28.9627 13 28.6871 12.8859 28.484 12.6827C28.2808 12.4795 28.1667 12.204 28.1667 11.9167V7.58333Z" fill="#0076CB"/>
</svg>
