<svg width="34" height="34" viewBox="0 0 34 34" fill="none" xmlns="http://www.w3.org/2000/svg">
<path fill-rule="evenodd" clip-rule="evenodd" d="M23.1273 21.107L30.749 28.7286C31.0169 28.9967 31.1673 29.3602 31.1672 29.7392C31.167 30.1182 31.0164 30.4816 30.7483 30.7495C30.4802 31.0174 30.1167 31.1678 29.7377 31.1677C29.3587 31.1676 28.9953 31.0169 28.7274 30.7488L21.1057 23.1271C18.8273 24.8918 15.9622 25.7223 13.0933 25.4495C10.2243 25.1768 7.56699 23.8213 5.66192 21.6589C3.75686 19.4965 2.74714 16.6895 2.83818 13.8091C2.92922 10.9286 4.11417 8.19101 6.15198 6.1532C8.18979 4.11539 10.9274 2.93044 13.8078 2.8394C16.6883 2.74836 19.4953 3.75808 21.6577 5.66314C23.8201 7.56821 25.1756 10.2255 25.4483 13.0945C25.7211 15.9634 24.8906 18.8286 23.1259 21.107H23.1273ZM14.1669 22.6667C16.4212 22.6667 18.5833 21.7712 20.1773 20.1771C21.7714 18.5831 22.6669 16.4211 22.6669 14.1667C22.6669 11.9124 21.7714 9.75036 20.1773 8.1563C18.5833 6.56225 16.4212 5.66671 14.1669 5.66671C11.9126 5.66671 9.75056 6.56225 8.1565 8.1563C6.56244 9.75036 5.66691 11.9124 5.66691 14.1667C5.66691 16.4211 6.56244 18.5831 8.1565 20.1771C9.75056 21.7712 11.9126 22.6667 14.1669 22.6667Z" fill="#0076CB"/>
</svg>
